<mxfile host="app.diagrams.net" agent="Mozilla/5.0 (Windows NT 10.0; Win64; x64) AppleWebKit/537.36 (KHTML, like Gecko) Chrome/134.0.0.0 Safari/537.36" version="26.2.4">
  <diagram name="페이지-1" id="K9Mb_518K6a3b0m3QpLU">
    <mxGraphModel dx="2187" dy="1917" grid="1" gridSize="10" guides="1" tooltips="1" connect="1" arrows="1" fold="1" page="1" pageScale="1" pageWidth="827" pageHeight="1169" math="0" shadow="0">
      <root>
        <mxCell id="0" />
        <mxCell id="1" parent="0" />
        <mxCell id="w3yauz0lc3whIGmM6YCb-5" value="" style="edgeStyle=orthogonalEdgeStyle;rounded=0;orthogonalLoop=1;jettySize=auto;html=1;" edge="1" parent="1" source="w3yauz0lc3whIGmM6YCb-1" target="w3yauz0lc3whIGmM6YCb-2">
          <mxGeometry relative="1" as="geometry" />
        </mxCell>
        <mxCell id="w3yauz0lc3whIGmM6YCb-1" value="&lt;span style=&quot;background-color: rgb(251, 251, 251);&quot;&gt;로그인 폼&lt;/span&gt;&lt;div style=&quot;background-color: rgb(251, 251, 251);&quot;&gt;(login_form.jsp)&lt;/div&gt;" style="shape=document;whiteSpace=wrap;html=1;boundedLbl=1;" vertex="1" parent="1">
          <mxGeometry x="230" y="160" width="120" height="80" as="geometry" />
        </mxCell>
        <mxCell id="w3yauz0lc3whIGmM6YCb-6" value="" style="edgeStyle=orthogonalEdgeStyle;rounded=0;orthogonalLoop=1;jettySize=auto;html=1;" edge="1" parent="1" source="w3yauz0lc3whIGmM6YCb-2" target="w3yauz0lc3whIGmM6YCb-3">
          <mxGeometry relative="1" as="geometry" />
        </mxCell>
        <mxCell id="w3yauz0lc3whIGmM6YCb-2" value="ID/PW 입력" style="shape=parallelogram;perimeter=parallelogramPerimeter;whiteSpace=wrap;html=1;fixedSize=1;" vertex="1" parent="1">
          <mxGeometry x="230" y="330" width="120" height="60" as="geometry" />
        </mxCell>
        <mxCell id="w3yauz0lc3whIGmM6YCb-8" value="" style="edgeStyle=orthogonalEdgeStyle;rounded=0;orthogonalLoop=1;jettySize=auto;html=1;" edge="1" parent="1" source="w3yauz0lc3whIGmM6YCb-3" target="w3yauz0lc3whIGmM6YCb-7">
          <mxGeometry relative="1" as="geometry" />
        </mxCell>
        <mxCell id="w3yauz0lc3whIGmM6YCb-3" value="&lt;div style=&quot;background-color: rgb(251, 251, 251);&quot;&gt;유효성 검사&lt;/div&gt;&lt;span style=&quot;background-color: rgb(251, 251, 251);&quot;&gt;(login.jsp)&lt;/span&gt;" style="rounded=0;whiteSpace=wrap;html=1;" vertex="1" parent="1">
          <mxGeometry x="230" y="480" width="120" height="60" as="geometry" />
        </mxCell>
        <mxCell id="w3yauz0lc3whIGmM6YCb-10" value="" style="edgeStyle=orthogonalEdgeStyle;rounded=0;orthogonalLoop=1;jettySize=auto;html=1;" edge="1" parent="1" source="w3yauz0lc3whIGmM6YCb-7" target="w3yauz0lc3whIGmM6YCb-9">
          <mxGeometry relative="1" as="geometry" />
        </mxCell>
        <mxCell id="w3yauz0lc3whIGmM6YCb-14" value="" style="edgeStyle=orthogonalEdgeStyle;rounded=0;orthogonalLoop=1;jettySize=auto;html=1;" edge="1" parent="1" source="w3yauz0lc3whIGmM6YCb-7">
          <mxGeometry relative="1" as="geometry">
            <mxPoint x="630" y="510" as="targetPoint" />
          </mxGeometry>
        </mxCell>
        <mxCell id="w3yauz0lc3whIGmM6YCb-7" value="ID is NULL" style="rhombus;whiteSpace=wrap;html=1;" vertex="1" parent="1">
          <mxGeometry x="430" y="470" width="80" height="80" as="geometry" />
        </mxCell>
        <mxCell id="w3yauz0lc3whIGmM6YCb-9" value="&lt;span style=&quot;background-color: rgb(251, 251, 251);&quot;&gt;username_msg&lt;/span&gt;&lt;span style=&quot;background-color: rgb(251, 251, 251);&quot;&gt;을 request 저장&lt;/span&gt;" style="rounded=0;whiteSpace=wrap;html=1;" vertex="1" parent="1">
          <mxGeometry x="410" y="660" width="120" height="60" as="geometry" />
        </mxCell>
        <mxCell id="w3yauz0lc3whIGmM6YCb-16" value="" style="edgeStyle=orthogonalEdgeStyle;rounded=0;orthogonalLoop=1;jettySize=auto;html=1;" edge="1" parent="1" source="w3yauz0lc3whIGmM6YCb-11" target="w3yauz0lc3whIGmM6YCb-15">
          <mxGeometry relative="1" as="geometry" />
        </mxCell>
        <mxCell id="w3yauz0lc3whIGmM6YCb-18" value="" style="edgeStyle=orthogonalEdgeStyle;rounded=0;orthogonalLoop=1;jettySize=auto;html=1;" edge="1" parent="1" source="w3yauz0lc3whIGmM6YCb-11" target="w3yauz0lc3whIGmM6YCb-17">
          <mxGeometry relative="1" as="geometry" />
        </mxCell>
        <mxCell id="w3yauz0lc3whIGmM6YCb-11" value="PW is NULL" style="rhombus;whiteSpace=wrap;html=1;" vertex="1" parent="1">
          <mxGeometry x="630" y="470" width="80" height="80" as="geometry" />
        </mxCell>
        <mxCell id="w3yauz0lc3whIGmM6YCb-15" value="&lt;span style=&quot;background-color: rgb(251, 251, 251);&quot;&gt;password_msg&lt;/span&gt;&lt;span style=&quot;background-color: rgb(251, 251, 251);&quot;&gt;을 request 저장&lt;/span&gt;" style="rounded=0;whiteSpace=wrap;html=1;" vertex="1" parent="1">
          <mxGeometry x="610" y="660" width="120" height="60" as="geometry" />
        </mxCell>
        <mxCell id="w3yauz0lc3whIGmM6YCb-20" value="" style="edgeStyle=orthogonalEdgeStyle;rounded=0;orthogonalLoop=1;jettySize=auto;html=1;entryX=0.992;entryY=0.388;entryDx=0;entryDy=0;entryPerimeter=0;" edge="1" parent="1" source="w3yauz0lc3whIGmM6YCb-17" target="w3yauz0lc3whIGmM6YCb-1">
          <mxGeometry relative="1" as="geometry">
            <mxPoint x="850" y="290" as="targetPoint" />
            <Array as="points">
              <mxPoint x="840" y="191" />
            </Array>
          </mxGeometry>
        </mxCell>
        <mxCell id="w3yauz0lc3whIGmM6YCb-29" value="" style="edgeStyle=orthogonalEdgeStyle;rounded=0;orthogonalLoop=1;jettySize=auto;html=1;entryX=1;entryY=0.5;entryDx=0;entryDy=0;" edge="1" parent="1" source="w3yauz0lc3whIGmM6YCb-17" target="w3yauz0lc3whIGmM6YCb-30">
          <mxGeometry relative="1" as="geometry">
            <mxPoint x="350" y="890" as="targetPoint" />
            <Array as="points">
              <mxPoint x="840" y="890" />
            </Array>
          </mxGeometry>
        </mxCell>
        <mxCell id="w3yauz0lc3whIGmM6YCb-17" value="&lt;span style=&quot;background-color: rgb(251, 251, 251);&quot;&gt;ID is NULL&lt;/span&gt;&lt;div style=&quot;background-color: rgb(251, 251, 251);&quot;&gt;or&lt;/div&gt;&lt;div style=&quot;background-color: rgb(251, 251, 251);&quot;&gt;PW is NULL&lt;/div&gt;" style="rhombus;whiteSpace=wrap;html=1;" vertex="1" parent="1">
          <mxGeometry x="800" y="470" width="80" height="80" as="geometry" />
        </mxCell>
        <mxCell id="w3yauz0lc3whIGmM6YCb-23" value="&lt;p style=&quot;margin:0px;margin-top:4px;text-align:center;&quot;&gt;&lt;b&gt;Class&lt;/b&gt;&lt;/p&gt;&lt;hr size=&quot;1&quot; style=&quot;border-style:solid;&quot;/&gt;&lt;div style=&quot;height:2px;&quot;&gt;&lt;/div&gt;" style="verticalAlign=top;align=left;overflow=fill;html=1;whiteSpace=wrap;" vertex="1" parent="1">
          <mxGeometry x="880" y="250" width="140" height="60" as="geometry" />
        </mxCell>
        <mxCell id="w3yauz0lc3whIGmM6YCb-26" value="&lt;p style=&quot;margin:0px;margin-top:4px;text-align:center;&quot;&gt;&lt;b&gt;Class&lt;/b&gt;&lt;/p&gt;&lt;hr size=&quot;1&quot; style=&quot;border-style:solid;&quot;/&gt;&lt;div style=&quot;height:2px;&quot;&gt;&lt;/div&gt;" style="verticalAlign=top;align=left;overflow=fill;html=1;whiteSpace=wrap;" vertex="1" parent="1">
          <mxGeometry x="880" y="370" width="140" height="60" as="geometry" />
        </mxCell>
        <mxCell id="w3yauz0lc3whIGmM6YCb-32" value="" style="edgeStyle=orthogonalEdgeStyle;rounded=0;orthogonalLoop=1;jettySize=auto;html=1;" edge="1" parent="1" source="w3yauz0lc3whIGmM6YCb-30" target="w3yauz0lc3whIGmM6YCb-31">
          <mxGeometry relative="1" as="geometry" />
        </mxCell>
        <mxCell id="w3yauz0lc3whIGmM6YCb-68" value="" style="edgeStyle=orthogonalEdgeStyle;rounded=0;orthogonalLoop=1;jettySize=auto;html=1;" edge="1" parent="1" source="w3yauz0lc3whIGmM6YCb-30" target="w3yauz0lc3whIGmM6YCb-66">
          <mxGeometry relative="1" as="geometry" />
        </mxCell>
        <mxCell id="w3yauz0lc3whIGmM6YCb-30" value="&lt;span style=&quot;background-color: rgb(251, 251, 251);&quot;&gt;ID is admin&lt;/span&gt;" style="rhombus;whiteSpace=wrap;html=1;" vertex="1" parent="1">
          <mxGeometry x="250" y="850" width="80" height="80" as="geometry" />
        </mxCell>
        <mxCell id="w3yauz0lc3whIGmM6YCb-34" value="" style="edgeStyle=orthogonalEdgeStyle;rounded=0;orthogonalLoop=1;jettySize=auto;html=1;" edge="1" parent="1" source="w3yauz0lc3whIGmM6YCb-31">
          <mxGeometry relative="1" as="geometry">
            <mxPoint x="290" y="1190" as="targetPoint" />
          </mxGeometry>
        </mxCell>
        <mxCell id="w3yauz0lc3whIGmM6YCb-69" value="" style="edgeStyle=orthogonalEdgeStyle;rounded=0;orthogonalLoop=1;jettySize=auto;html=1;" edge="1" parent="1" source="w3yauz0lc3whIGmM6YCb-31" target="w3yauz0lc3whIGmM6YCb-67">
          <mxGeometry relative="1" as="geometry" />
        </mxCell>
        <mxCell id="w3yauz0lc3whIGmM6YCb-31" value="&lt;span style=&quot;background-color: rgb(251, 251, 251);&quot;&gt;PW is 1234&lt;/span&gt;" style="rhombus;whiteSpace=wrap;html=1;" vertex="1" parent="1">
          <mxGeometry x="250" y="1000" width="80" height="80" as="geometry" />
        </mxCell>
        <mxCell id="w3yauz0lc3whIGmM6YCb-45" value="" style="edgeStyle=orthogonalEdgeStyle;rounded=0;orthogonalLoop=1;jettySize=auto;html=1;" edge="1" parent="1" source="w3yauz0lc3whIGmM6YCb-41" target="w3yauz0lc3whIGmM6YCb-44">
          <mxGeometry relative="1" as="geometry" />
        </mxCell>
        <mxCell id="w3yauz0lc3whIGmM6YCb-41" value="&lt;span style=&quot;background-color: rgb(251, 251, 251);&quot;&gt;MAIN PAGE&amp;nbsp;&lt;/span&gt;&lt;div style=&quot;background-color: rgb(251, 251, 251);&quot;&gt;이동 출력&lt;/div&gt;" style="shape=parallelogram;perimeter=parallelogramPerimeter;whiteSpace=wrap;html=1;fixedSize=1;" vertex="1" parent="1">
          <mxGeometry x="220" y="1340" width="140" height="60" as="geometry" />
        </mxCell>
        <mxCell id="w3yauz0lc3whIGmM6YCb-43" value="" style="edgeStyle=orthogonalEdgeStyle;rounded=0;orthogonalLoop=1;jettySize=auto;html=1;" edge="1" parent="1" source="w3yauz0lc3whIGmM6YCb-42" target="w3yauz0lc3whIGmM6YCb-41">
          <mxGeometry relative="1" as="geometry" />
        </mxCell>
        <mxCell id="w3yauz0lc3whIGmM6YCb-42" value="&lt;span style=&quot;background-color: rgb(251, 251, 251);&quot;&gt;사용자 정보를 저장&lt;/span&gt;&lt;div style=&quot;background-color: rgb(251, 251, 251);&quot;&gt;isAuth/Role&lt;/div&gt;" style="rounded=0;whiteSpace=wrap;html=1;" vertex="1" parent="1">
          <mxGeometry x="230" y="1190" width="120" height="60" as="geometry" />
        </mxCell>
        <mxCell id="w3yauz0lc3whIGmM6YCb-48" value="" style="edgeStyle=orthogonalEdgeStyle;rounded=0;orthogonalLoop=1;jettySize=auto;html=1;" edge="1" parent="1" source="w3yauz0lc3whIGmM6YCb-44" target="w3yauz0lc3whIGmM6YCb-49">
          <mxGeometry relative="1" as="geometry">
            <mxPoint x="290" y="1710" as="targetPoint" />
          </mxGeometry>
        </mxCell>
        <mxCell id="w3yauz0lc3whIGmM6YCb-44" value="MAIN PAGE로 이동" style="rounded=0;whiteSpace=wrap;html=1;" vertex="1" parent="1">
          <mxGeometry x="230" y="1510" width="120" height="60" as="geometry" />
        </mxCell>
        <mxCell id="w3yauz0lc3whIGmM6YCb-46" value="종료" style="strokeWidth=2;html=1;shape=mxgraph.flowchart.terminator;whiteSpace=wrap;" vertex="1" parent="1">
          <mxGeometry x="240" y="1900" width="100" height="60" as="geometry" />
        </mxCell>
        <mxCell id="w3yauz0lc3whIGmM6YCb-50" value="" style="edgeStyle=orthogonalEdgeStyle;rounded=0;orthogonalLoop=1;jettySize=auto;html=1;" edge="1" parent="1" source="w3yauz0lc3whIGmM6YCb-49" target="w3yauz0lc3whIGmM6YCb-46">
          <mxGeometry relative="1" as="geometry" />
        </mxCell>
        <mxCell id="w3yauz0lc3whIGmM6YCb-49" value="&lt;span style=&quot;background-color: rgb(251, 251, 251);&quot;&gt;MAIN PAGE&lt;/span&gt;" style="shape=document;whiteSpace=wrap;html=1;boundedLbl=1;" vertex="1" parent="1">
          <mxGeometry x="230" y="1710" width="120" height="80" as="geometry" />
        </mxCell>
        <mxCell id="w3yauz0lc3whIGmM6YCb-52" value="" style="edgeStyle=orthogonalEdgeStyle;rounded=0;orthogonalLoop=1;jettySize=auto;html=1;" edge="1" parent="1" source="w3yauz0lc3whIGmM6YCb-51" target="w3yauz0lc3whIGmM6YCb-1">
          <mxGeometry relative="1" as="geometry" />
        </mxCell>
        <mxCell id="w3yauz0lc3whIGmM6YCb-51" value="시작" style="strokeWidth=2;html=1;shape=mxgraph.flowchart.terminator;whiteSpace=wrap;" vertex="1" parent="1">
          <mxGeometry x="240" y="-20" width="100" height="60" as="geometry" />
        </mxCell>
        <mxCell id="w3yauz0lc3whIGmM6YCb-53" value="YES" style="text;html=1;align=center;verticalAlign=middle;resizable=0;points=[];autosize=1;strokeColor=none;fillColor=none;fontSize=16;" vertex="1" parent="1">
          <mxGeometry x="480" y="585" width="60" height="30" as="geometry" />
        </mxCell>
        <mxCell id="w3yauz0lc3whIGmM6YCb-54" value="YES" style="text;html=1;align=center;verticalAlign=middle;resizable=0;points=[];autosize=1;strokeColor=none;fillColor=none;fontSize=16;" vertex="1" parent="1">
          <mxGeometry x="700" y="585" width="60" height="30" as="geometry" />
        </mxCell>
        <mxCell id="w3yauz0lc3whIGmM6YCb-55" value="YES" style="text;html=1;align=center;verticalAlign=middle;resizable=0;points=[];autosize=1;strokeColor=none;fillColor=none;fontSize=16;" vertex="1" parent="1">
          <mxGeometry x="777" y="450" width="60" height="30" as="geometry" />
        </mxCell>
        <mxCell id="w3yauz0lc3whIGmM6YCb-56" value="NO" style="text;html=1;align=center;verticalAlign=middle;resizable=0;points=[];autosize=1;strokeColor=none;fillColor=none;fontSize=16;" vertex="1" parent="1">
          <mxGeometry x="777" y="550" width="50" height="30" as="geometry" />
        </mxCell>
        <mxCell id="w3yauz0lc3whIGmM6YCb-57" value="username_msg" style="swimlane;fontStyle=0;childLayout=stackLayout;horizontal=1;startSize=30;horizontalStack=0;resizeParent=1;resizeParentMax=0;resizeLast=0;collapsible=1;marginBottom=0;whiteSpace=wrap;html=1;" vertex="1" parent="1">
          <mxGeometry x="880" y="370" width="140" height="60" as="geometry" />
        </mxCell>
        <mxCell id="w3yauz0lc3whIGmM6YCb-58" value="username을 입력하세요" style="text;strokeColor=none;fillColor=none;align=left;verticalAlign=middle;spacingLeft=4;spacingRight=4;overflow=hidden;points=[[0,0.5],[1,0.5]];portConstraint=eastwest;rotatable=0;whiteSpace=wrap;html=1;" vertex="1" parent="w3yauz0lc3whIGmM6YCb-57">
          <mxGeometry y="30" width="140" height="30" as="geometry" />
        </mxCell>
        <mxCell id="w3yauz0lc3whIGmM6YCb-59" value="password_mag" style="swimlane;fontStyle=0;childLayout=stackLayout;horizontal=1;startSize=30;horizontalStack=0;resizeParent=1;resizeParentMax=0;resizeLast=0;collapsible=1;marginBottom=0;whiteSpace=wrap;html=1;" vertex="1" parent="1">
          <mxGeometry x="880" y="250" width="140" height="60" as="geometry" />
        </mxCell>
        <mxCell id="w3yauz0lc3whIGmM6YCb-60" value="password를 입력하세요" style="text;strokeColor=none;fillColor=none;align=left;verticalAlign=middle;spacingLeft=4;spacingRight=4;overflow=hidden;points=[[0,0.5],[1,0.5]];portConstraint=eastwest;rotatable=0;whiteSpace=wrap;html=1;" vertex="1" parent="w3yauz0lc3whIGmM6YCb-59">
          <mxGeometry y="30" width="140" height="30" as="geometry" />
        </mxCell>
        <mxCell id="w3yauz0lc3whIGmM6YCb-61" value="username_msg" style="swimlane;fontStyle=0;childLayout=stackLayout;horizontal=1;startSize=30;horizontalStack=0;resizeParent=1;resizeParentMax=0;resizeLast=0;collapsible=1;marginBottom=0;whiteSpace=wrap;html=1;" vertex="1" parent="1">
          <mxGeometry x="-10" y="790" width="180" height="60" as="geometry" />
        </mxCell>
        <mxCell id="w3yauz0lc3whIGmM6YCb-62" value="해당 ID는 존재하지않습니다" style="text;strokeColor=none;fillColor=none;align=left;verticalAlign=middle;spacingLeft=4;spacingRight=4;overflow=hidden;points=[[0,0.5],[1,0.5]];portConstraint=eastwest;rotatable=0;whiteSpace=wrap;html=1;" vertex="1" parent="w3yauz0lc3whIGmM6YCb-61">
          <mxGeometry y="30" width="180" height="30" as="geometry" />
        </mxCell>
        <mxCell id="w3yauz0lc3whIGmM6YCb-64" value="password_msg" style="swimlane;fontStyle=0;childLayout=stackLayout;horizontal=1;startSize=30;horizontalStack=0;resizeParent=1;resizeParentMax=0;resizeLast=0;collapsible=1;marginBottom=0;whiteSpace=wrap;html=1;" vertex="1" parent="1">
          <mxGeometry x="-10" y="940" width="180" height="60" as="geometry" />
        </mxCell>
        <mxCell id="w3yauz0lc3whIGmM6YCb-65" value="패스워드가 일치하지않습니다" style="text;strokeColor=none;fillColor=none;align=left;verticalAlign=middle;spacingLeft=4;spacingRight=4;overflow=hidden;points=[[0,0.5],[1,0.5]];portConstraint=eastwest;rotatable=0;whiteSpace=wrap;html=1;" vertex="1" parent="w3yauz0lc3whIGmM6YCb-64">
          <mxGeometry y="30" width="180" height="30" as="geometry" />
        </mxCell>
        <mxCell id="w3yauz0lc3whIGmM6YCb-79" value="" style="edgeStyle=orthogonalEdgeStyle;rounded=0;orthogonalLoop=1;jettySize=auto;html=1;endArrow=none;startFill=0;" edge="1" parent="1" source="w3yauz0lc3whIGmM6YCb-66">
          <mxGeometry relative="1" as="geometry">
            <mxPoint x="-140" y="890" as="targetPoint" />
          </mxGeometry>
        </mxCell>
        <mxCell id="w3yauz0lc3whIGmM6YCb-66" value="username_msg&lt;br&gt;을 request 저장" style="whiteSpace=wrap;html=1;strokeWidth=2;" vertex="1" parent="1">
          <mxGeometry x="20" y="860" width="120" height="60" as="geometry" />
        </mxCell>
        <mxCell id="w3yauz0lc3whIGmM6YCb-77" value="" style="edgeStyle=orthogonalEdgeStyle;rounded=0;orthogonalLoop=1;jettySize=auto;html=1;entryX=-0.015;entryY=0.407;entryDx=0;entryDy=0;entryPerimeter=0;" edge="1" parent="1" source="w3yauz0lc3whIGmM6YCb-67" target="w3yauz0lc3whIGmM6YCb-1">
          <mxGeometry relative="1" as="geometry">
            <mxPoint x="-80" y="200" as="targetPoint" />
            <Array as="points">
              <mxPoint x="-140" y="1040" />
              <mxPoint x="-140" y="193" />
            </Array>
          </mxGeometry>
        </mxCell>
        <mxCell id="w3yauz0lc3whIGmM6YCb-67" value="password_msg&lt;br&gt;을 request 저장" style="whiteSpace=wrap;html=1;strokeWidth=2;" vertex="1" parent="1">
          <mxGeometry x="20" y="1010" width="120" height="60" as="geometry" />
        </mxCell>
        <mxCell id="w3yauz0lc3whIGmM6YCb-74" value="NO" style="text;html=1;align=center;verticalAlign=middle;resizable=0;points=[];autosize=1;strokeColor=none;fillColor=none;fontSize=16;" vertex="1" parent="1">
          <mxGeometry x="180" y="850" width="50" height="30" as="geometry" />
        </mxCell>
        <mxCell id="w3yauz0lc3whIGmM6YCb-75" value="NO" style="text;html=1;align=center;verticalAlign=middle;resizable=0;points=[];autosize=1;strokeColor=none;fillColor=none;fontSize=16;" vertex="1" parent="1">
          <mxGeometry x="180" y="1000" width="50" height="30" as="geometry" />
        </mxCell>
      </root>
    </mxGraphModel>
  </diagram>
</mxfile>
